<svg width="30" height="36" viewBox="0 0 30 36" fill="none" xmlns="http://www.w3.org/2000/svg">
<path fill-rule="evenodd" clip-rule="evenodd" d="M21.9843 10.0612C19.1602 8.32868 16.7605 5.77387 16.7567 2.00901L16.7567 2V0H12.7567L12.7567 2L12.7567 2.00901C12.7529 5.77387 10.3531 8.32868 7.52903 10.0612C6.1356 10.916 4.72556 11.5105 3.65445 11.8916C3.12226 12.0809 2.68225 12.2146 2.38117 12.2996C2.23084 12.342 2.11577 12.3721 2.04186 12.3908C2.00493 12.4001 1.97834 12.4066 1.96284 12.4103L1.94914 12.4135L1.94816 12.4137L1.94701 12.414L0 12.8559L0.885285 16.7567L2.83569 16.314L2.39304 14.3636C2.83569 16.314 2.83723 16.3137 2.83723 16.3137L2.83906 16.3133L2.84358 16.3122L2.85601 16.3094L2.89419 16.3003C2.92547 16.2928 2.9683 16.2824 3.02192 16.2688C3.12913 16.2417 3.27968 16.2022 3.46742 16.1492C3.84248 16.0434 4.36838 15.8832 4.99528 15.6602C5.43639 15.5032 5.93177 15.3137 6.46297 15.0881V33.5133V35.5133H10.463V33.5133V25.4545H19.0504V33.5133V35.5133H23.0504V33.5133V15.0881C23.5816 15.3137 24.077 15.5032 24.5181 15.6602C25.145 15.8832 25.6709 16.0434 26.0459 16.1492C26.2337 16.2022 26.3842 16.2417 26.4914 16.2688C26.545 16.2824 26.5879 16.2928 26.6192 16.3003L26.6573 16.3094L26.6698 16.3122L26.6743 16.3133L26.6761 16.3137C26.6761 16.3137 26.6777 16.314 27.1203 14.3636L26.6777 16.314L28.6281 16.7567L29.5134 12.8559L27.5665 12.414L27.5653 12.4138L27.5642 12.4135L27.5505 12.4103L27.5173 12.4022L27.4715 12.3908C27.3976 12.3721 27.2825 12.342 27.1322 12.2996C26.8311 12.2146 26.3911 12.0809 25.8589 11.8916C24.7878 11.5105 23.3778 10.916 21.9843 10.0612ZM19.0504 21.4545V12.9252C17.5022 11.8667 15.9383 10.4726 14.7567 8.68641C13.5751 10.4726 12.0112 11.8667 10.463 12.9252V21.4545H19.0504Z" fill="#F44336"/>
</svg>
