<svg width="18" height="18" viewBox="0 0 18 18" fill="none" xmlns="http://www.w3.org/2000/svg">
<path fill-rule="evenodd" clip-rule="evenodd" d="M12.7384 11H11.9484L11.6684 10.73C12.6484 9.59 13.2384 8.11 13.2384 6.5C13.2384 2.91 10.3284 0 6.7384 0C3.1484 0 0.238403 2.91 0.238403 6.5C0.238403 10.09 3.1484 13 6.7384 13C8.3484 13 9.8284 12.41 10.9684 11.43L11.2384 11.71V12.5L16.2384 17.49L17.7284 16L12.7384 11ZM6.7384 11C4.2484 11 2.2384 8.99 2.2384 6.5C2.2384 4.01 4.2484 2 6.7384 2C9.2284 2 11.2384 4.01 11.2384 6.5C11.2384 8.99 9.2284 11 6.7384 11Z" fill="#4F4F4F"/>
</svg>
